<!-- Frustratingly (for educational purposes) crafted by Dominic Tran -->

<svg viewBox="0 0 1000 1000" xmlns="http://www.w3.org/2000/svg">

        <rect x="40" y="20" width="100" height="40" fill="transparent"/>

        <ellipse cx="90" cy="25" rx="45" ry="6" fill="lightblue" stroke-width="2px"/>

        <ellipse cx="91" cy="29" rx="48" ry="10" fill="lightblue" stroke-width="2px"/>

        <rect x="41" y="30" width="99" height="970" fill="lightblue"/>

        <rect x="0" y="60" width="985" height="940" fill="lightblue"/>

        <ellipse cx="990" cy="70" rx="10" ry="9" fill="lightblue" stroke-width="2px"/>

        <rect x="984" y="70" width="16" height="930" fill="lightblue"/>

        <line x1="42" x2="42" y1="64" y2="50" stroke="lightblue" stroke-width="5"/>

        <line x1="34" x2="42" y1="61" y2="59" stroke="lightblue" stroke-width="5"/>

        <line x1="139" x2="146" y1="58" y2="61" stroke="lightblue" stroke-width="5"/>


        
        <path d="
         M 0 60
         C 40 60 40 60 40 50

         M 40 50
         C 40 20, 40 20, 100 20

         M 100 20
         C 140 20 140 20 140 50

         M 140 50
         C 140 60 140 60 180 60

         M 180 60
         C 180 60 180 60 940 60

         M 940 60
         C 1000 60 1000 60 1000 80
         
         M 1000 80
         C 1000 1000 1000 1000 1000 1000
         "
          stroke="skyblue" stroke-width="2px" fill="transparent"/>
      </svg>