<!-- Painstakingly (for educational purposes) crafted by Dominic Tran -->

<svg viewBox="0 0 1000 1000" xmlns="http://www.w3.org/2000/svg">

        <g fill="var(--folder-color)" stroke="var(--folder-color)">
        <ellipse cx="200" cy="25" rx="45" ry="6" stroke-width="2px"/>

        <ellipse cx="201" cy="29" rx="48" ry="10" stroke-width="2px"/>

        <rect x="151" y="30" width="99" height="970"/>

        <rect x="0" y="60" width="985" height="940"/>

        <ellipse cx="990" cy="70" rx="10" ry="9" stroke-width="2px"/>

        <rect x="984" y="70" width="16" height="930"/>

        <line x1="152" x2="152" y1="64" y2="50" stroke-width="5"/>

        <line x1="130" x2="155" y1="61" y2="58" stroke-width="5"/>

        <line x1="249" x2="256" y1="58" y2="61" stroke-width="5"/>
        </g>

        <g stroke="var(--folder-outline-color)">
        <path d="
         M 0 60
         C 150 60 150 60 150 50

         M 150 50
         C 150 20, 150 20, 210 20

         M 210 20
         C 250 20 250 20 250 50

         M 250 50
         C 250 60 250 60 290 60

         M 290 60
         C 290 60 290 60 940 60

         M 940 60
         C 1000 60 1000 60 1000 80
         
         M 1000 80
         C 1000 1000 1000 1000 1000 1000
         "
        stroke-width="2px" fill="transparent"/>
        </g>
</svg>